<svg width="18" height="18" viewBox="0 0 18 18" fill="none" xmlns="http://www.w3.org/2000/svg">
<path fill-rule="evenodd" clip-rule="evenodd" d="M1.17508 1.17552C1.39386 0.956796 1.69056 0.833922 1.99991 0.833922C2.30927 0.833922 2.60596 0.956796 2.82475 1.17552L8.99991 7.35099L15.1751 1.17552C15.2827 1.06409 15.4114 0.975205 15.5538 0.914059C15.6961 0.852912 15.8492 0.820726 16.0041 0.81938C16.159 0.818034 16.3126 0.847554 16.456 0.906218C16.5994 0.964881 16.7297 1.05151 16.8392 1.16106C16.9487 1.27061 17.0354 1.40087 17.094 1.54426C17.1527 1.68765 17.1822 1.84128 17.1809 1.9962C17.1795 2.15111 17.1473 2.30421 17.0862 2.44656C17.0251 2.5889 16.9362 2.71764 16.8247 2.82527L10.6496 9.00073L16.8247 15.1762C17.0373 15.3962 17.1549 15.691 17.1522 15.9969C17.1495 16.3028 17.0268 16.5954 16.8105 16.8117C16.5942 17.0281 16.3016 17.1508 15.9957 17.1534C15.6898 17.1561 15.3951 17.0385 15.1751 16.8259L8.99991 10.6505L2.82475 16.8259C2.60471 17.0385 2.31001 17.1561 2.00411 17.1534C1.69822 17.1508 1.4056 17.0281 1.18929 16.8117C0.972982 16.5954 0.850285 16.3028 0.847627 15.9969C0.844969 15.691 0.962563 15.3962 1.17508 15.1762L7.35025 9.00073L1.17508 2.82527C0.956364 2.60648 0.833496 2.30977 0.833496 2.0004C0.833496 1.69102 0.956364 1.39432 1.17508 1.17552Z" fill="white"/>
</svg>
