<svg width="22" height="18" viewBox="0 0 22 18" fill="none" xmlns="http://www.w3.org/2000/svg">
<path fill-rule="evenodd" clip-rule="evenodd" d="M1.66667 0.833374C1.35725 0.833374 1.0605 0.956291 0.841709 1.17508C0.622916 1.39388 0.5 1.69062 0.5 2.00004C0.5 2.30946 0.622916 2.60621 0.841709 2.825C1.0605 3.04379 1.35725 3.16671 1.66667 3.16671H20.3333C20.6428 3.16671 20.9395 3.04379 21.1583 2.825C21.3771 2.60621 21.5 2.30946 21.5 2.00004C21.5 1.69062 21.3771 1.39388 21.1583 1.17508C20.9395 0.956291 20.6428 0.833374 20.3333 0.833374H1.66667ZM0.5 9.00004C0.5 8.69062 0.622916 8.39388 0.841709 8.17508C1.0605 7.95629 1.35725 7.83337 1.66667 7.83337H20.3333C20.6428 7.83337 20.9395 7.95629 21.1583 8.17508C21.3771 8.39388 21.5 8.69062 21.5 9.00004C21.5 9.30946 21.3771 9.60621 21.1583 9.825C20.9395 10.0438 20.6428 10.1667 20.3333 10.1667H1.66667C1.35725 10.1667 1.0605 10.0438 0.841709 9.825C0.622916 9.60621 0.5 9.30946 0.5 9.00004ZM0.5 16C0.5 15.6906 0.622916 15.3939 0.841709 15.1751C1.0605 14.9563 1.35725 14.8334 1.66667 14.8334H20.3333C20.6428 14.8334 20.9395 14.9563 21.1583 15.1751C21.3771 15.3939 21.5 15.6906 21.5 16C21.5 16.3095 21.3771 16.6062 21.1583 16.825C20.9395 17.0438 20.6428 17.1667 20.3333 17.1667H1.66667C1.35725 17.1667 1.0605 17.0438 0.841709 16.825C0.622916 16.6062 0.5 16.3095 0.5 16Z" fill="white"/>
</svg>
