<svg width="44" height="22" viewBox="0 0 44 22" fill="none" xmlns="http://www.w3.org/2000/svg">
<rect width="44" height="22" rx="11" fill="#4CC986"/>
<circle cx="32" cy="11" r="9" fill="white"/>
<path d="M11.6354 14.048C11.2407 14.048 10.894 14.0107 10.5954 13.936C10.302 13.856 10.054 13.7147 9.85138 13.512C9.65404 13.304 9.50471 13.0027 9.40338 12.608C9.30738 12.2133 9.25938 11.6987 9.25938 11.064C9.25938 10.424 9.31004 9.90667 9.41138 9.512C9.51271 9.112 9.66204 8.808 9.85938 8.6C10.062 8.38667 10.31 8.24 10.6034 8.16C10.902 8.08 11.246 8.04 11.6354 8.04C12.0354 8.04 12.3847 8.08 12.6834 8.16C12.982 8.24 13.23 8.38667 13.4274 8.6C13.6247 8.808 13.7714 9.112 13.8674 9.512C13.9687 9.90667 14.0194 10.424 14.0194 11.064C14.0194 11.6987 13.9687 12.2133 13.8674 12.608C13.7714 13.0027 13.622 13.304 13.4194 13.512C13.222 13.7147 12.974 13.856 12.6754 13.936C12.382 14.0107 12.0354 14.048 11.6354 14.048ZM11.6354 13.16C11.8967 13.16 12.1154 13.1333 12.2914 13.08C12.4727 13.0213 12.6167 12.92 12.7234 12.776C12.83 12.6267 12.9074 12.416 12.9554 12.144C13.0034 11.8667 13.0274 11.5067 13.0274 11.064C13.0274 10.5947 13.0007 10.2213 12.9474 9.944C12.8994 9.66133 12.822 9.448 12.7154 9.304C12.6087 9.15467 12.4674 9.056 12.2914 9.008C12.1154 8.95467 11.8967 8.928 11.6354 8.928C11.39 8.928 11.1794 8.95467 11.0034 9.008C10.8274 9.056 10.6834 9.15467 10.5714 9.304C10.4647 9.448 10.3847 9.66133 10.3314 9.944C10.278 10.2213 10.2514 10.5947 10.2514 11.064C10.2514 11.5067 10.2727 11.8667 10.3154 12.144C10.3634 12.416 10.4407 12.6267 10.5474 12.776C10.654 12.92 10.7954 13.0213 10.9714 13.08C11.1527 13.1333 11.374 13.16 11.6354 13.16ZM15.0379 14V8.096H15.8299L18.5179 12.312V8.096H19.5099V14H18.7179L16.0299 9.784V14H15.0379Z" fill="white"/>
</svg>
