<svg width="24" height="24" viewBox="0 0 24 24" fill="none" xmlns="http://www.w3.org/2000/svg">
<path fill-rule="evenodd" clip-rule="evenodd" d="M17.8608 24H14.1696C14.0755 24 14.0001 23.9245 14.0001 23.8302V0.150943C14.0001 0.0754717 14.0566 0 14.1508 0H17.8608C21.2506 0 24.0001 2.75472 24.0001 6.15094V17.8491C24.0001 21.2453 21.2506 24 17.8608 24ZM21.1564 13.2076C21.1564 11.8679 20.0641 10.7736 18.727 10.7736C17.3899 10.7736 16.3165 11.8679 16.2976 13.2076C16.2976 14.5472 17.3899 15.6415 18.727 15.6415C20.0641 15.6415 21.1564 14.5472 21.1564 13.2076Z" fill="#515151"/>
<path d="M3.99988 8C3.99988 9.1 4.89988 10 5.99988 10C7.09988 10 7.99988 9.1 7.99988 8C7.99988 6.9 7.09988 6 5.99988 6C4.88321 6 3.99988 6.88333 3.99988 8Z" fill="#515151"/>
<path fill-rule="evenodd" clip-rule="evenodd" d="M6.38173 0H11.8238C11.9217 0 12 0.0754717 12 0.169811V23.8302C12 23.9245 11.9217 24 11.8238 24H6.38173C2.85807 24 0 21.2453 0 17.8491V6.15094C0 2.75472 2.85807 0 6.38173 0ZM6.38169 22.0755H10.0032V1.92458H6.38169C5.20714 1.92458 4.11089 2.37741 3.2887 3.16986C2.44694 3.96232 1.99669 5.01892 1.99669 6.15099V17.8491C1.99669 18.9812 2.46652 20.0378 3.2887 20.8302C4.11089 21.6416 5.20714 22.0755 6.38169 22.0755Z" fill="#515151"/>
</svg>
