<svg width="22" height="21" viewBox="0 0 22 21" fill="none" xmlns="http://www.w3.org/2000/svg">
<path fill-rule="evenodd" clip-rule="evenodd" d="M6.33325 3.3333C4.47992 3.3333 2.99992 4.8173 2.99992 6.62263C2.99992 8.65463 4.17592 10.8226 5.99459 12.9466C7.52259 14.7293 9.37858 16.3373 10.9999 17.6346C12.6213 16.3373 14.4773 14.728 16.0053 12.9466C17.8239 10.8226 18.9999 8.6533 18.9999 6.62263C18.9999 4.8173 17.5199 3.3333 15.6666 3.3333C13.8133 3.3333 12.3333 4.8173 12.3333 6.62263C12.3333 6.97625 12.1928 7.31539 11.9427 7.56544C11.6927 7.81549 11.3535 7.95597 10.9999 7.95597C10.6463 7.95597 10.3072 7.81549 10.0571 7.56544C9.80706 7.31539 9.66658 6.97625 9.66658 6.62263C9.66658 4.8173 8.18658 3.3333 6.33325 3.3333ZM10.9999 2.87863C10.4353 2.1863 9.72352 1.62853 8.91626 1.24589C8.109 0.863249 7.2266 0.665365 6.33325 0.666632C3.03192 0.666632 0.333252 3.31997 0.333252 6.62263C0.333252 9.62397 2.02259 12.4093 3.96925 14.6813C5.94392 16.9866 8.36525 18.972 10.1813 20.3853C10.4153 20.5674 10.7034 20.6662 10.9999 20.6662C11.2965 20.6662 11.5845 20.5674 11.8186 20.3853C13.6346 18.972 16.0559 16.9853 18.0306 14.6813C19.9773 12.4093 21.6666 9.62397 21.6666 6.62263C21.6666 3.31997 18.9679 0.666632 15.6666 0.666632C13.7866 0.666632 12.1013 1.52797 10.9999 2.87863Z" fill="white"/>
</svg>
